<?xml version="1.0" encoding="utf-8"?>
<!-- Generator: Adobe Illustrator 24.1.2, SVG Export Plug-In . SVG Version: 6.00 Build 0)  -->
<svg version="1.1" id="Warstwa_1" xmlns="http://www.w3.org/2000/svg" xmlns:xlink="http://www.w3.org/1999/xlink" x="0px" y="0px"
	 viewBox="0 0 100 100" style="enable-background:new 0 0 100 100;" xml:space="preserve">
<style type="text/css">
	.st0{fill:#FEF8D6;}
</style>
<g id="XMLID_693_">
	<path class="st0" d="M64.31,85.82c4.37-0.08,7.43-4.68,12.4-2.12c-0.89,0.81-1.37,1.43-1.99,1.78c-6.85,3.86-13.69,7.73-20.6,11.45
		c-1.13,0.61-2.95,1.16-3.89,0.67c-1.73-0.9-1.05-2.7-0.38-4.25c2.1-4.83,4.15-9.69,6.23-14.57c2.58,1.85,2.58,1.85,0.3,10.47
		c13.28-9.59,14.72-27.51,2.89-38.3c-1.01,1.23-1.97,2.49-3.01,3.68c-3.07,3.49-6.8,5.79-11.51,6.35c-3.47,0.41-6.45-0.49-8.39-3.47
		c-2-3.07-1.19-6.14,0.6-9.05c3.88-6.31,10.49-8.51,17.46-5.84c0.86,0.33,1.77,0.52,2.97,0.87c2.39-9.07,2.13-17.76-2.06-25.93
		c-6.47-12.6-18.71-12.14-27.6-7.72c-1.1,0.55-2.1,1.3-3.78,2.36c0.87-3.01,2.72-4.25,4.53-5.44c7.12-4.69,17.66-4.19,24.39,1.09
		c4.3,3.38,7.19,7.75,8.66,13c2.16,7.72,2.44,15.48,0.14,23.24c-0.23,0.76-0.4,1.54-0.67,2.57c5.12,5.34,9.43,11.18,10.11,19
		C71.77,73.3,67.73,79.36,64.31,85.82z M55.72,47.94c-6.25-4.37-12.78-3.3-15.8,2.52c-0.71,1.37-0.93,3.5-0.39,4.91
		c0.76,2,2.92,2.13,4.95,1.74C49.74,56.09,53.15,52.84,55.72,47.94z"/>
</g>
</svg>
