<?xml version="1.0" encoding="utf-8"?>
<!-- Generator: Adobe Illustrator 24.1.2, SVG Export Plug-In . SVG Version: 6.00 Build 0)  -->
<svg version="1.1" id="Warstwa_1" xmlns="http://www.w3.org/2000/svg" xmlns:xlink="http://www.w3.org/1999/xlink" x="0px" y="0px"
	 viewBox="0 0 100 100" style="enable-background:new 0 0 100 100;" xml:space="preserve">
<style type="text/css">
	.st0{fill:#FEF8D6;}
</style>
<g id="XMLID_538_">
	<path class="st0" d="M53.64,99.42c-1.92-0.91-1.89-2.66-2.11-4.11c-1.27-8.32-2.84-16.62-3.57-24.99
		c-1.49-17.1-2.51-34.24-3.73-51.36c-0.1-1.39-0.25-2.77-0.67-4.21c-2.32,5.91-3.4,12.22-5.79,18.05c-0.46-0.08-0.91-0.17-1.37-0.25
		c-0.07-1.13-0.39-2.31-0.18-3.38c1.72-8.57,3.46-17.13,5.36-25.65c0.7-3.16,2.72-3.79,5.2-1.62c1.89,1.66,3.58,3.62,5.08,5.66
		c3.2,4.34,6.29,8.78,9.3,13.26c2.01,2.98,1.99,3.33,1.66,7.21c-6.28-3.89-8.32-10.86-13.35-15.85c-0.14,1.28-0.39,2.26-0.33,3.22
		c1.66,26.33,3.36,52.65,5.02,78.98C54.27,95.98,55.03,97.73,53.64,99.42z"/>
</g>
</svg>
